<svg width="48" height="60" viewBox="0 0 48 60" fill="none" xmlns="http://www.w3.org/2000/svg">
<path d="M9.54295 42.4553V55.2704C5.01915 51.8719 1.74301 46.9037 0.521851 41.175C3.40045 41.9559 6.42175 42.4003 9.54295 42.4553Z" fill="#2560B6"/>
<path d="M22.4762 40.386V60C19.0513 59.8063 15.822 58.8869 12.9332 57.3966V42.3615C16.2603 42.1229 19.461 41.4441 22.4762 40.386Z" fill="#2560B6"/>
<path d="M35.4097 32.5005V57.0623C32.5393 58.6545 29.308 59.6718 25.8667 59.9593V39.0038C29.4058 37.3444 32.6269 35.1406 35.4097 32.5025V32.5005Z" fill="#2560B6"/>
<path d="M47.7149 36.1822C47.7149 43.7008 44.2349 50.4101 38.7998 54.781V28.8002C40.4634 26.7065 41.8904 24.4252 43.0382 21.9951C45.9759 25.9603 47.7149 30.8694 47.7149 36.1822Z" fill="#2560B6"/>
<path d="M0.289429 39.9089C3.20064 39.5216 8.69689 38.3799 14.1891 34.4229C15.451 33.5136 19.2918 30.5983 22.4762 25.3896C26.0031 19.6222 26.8777 14.0688 27.1224 10.9415L22.4762 9.80803L38.7998 0L47.2134 16.342L43.8231 15.4633C43.3012 17.3939 42.4042 20.0136 40.81 22.8718C40.2432 23.885 37.7112 28.2987 32.6716 32.4984C30.1763 34.5799 25.997 37.5013 20.2154 39.3198C11.4328 42.0862 3.84079 40.7713 0.289429 39.9089Z" fill="#EC7A23"/>
<path opacity="0.18" d="M25.6016 12.3869C23.8381 25.8666 13.4511 36.6348 0.161056 38.9732C0.0550457 38.0578 0 37.1262 0 36.1822C0 28.3762 3.74911 21.4468 9.543 17.0942C10.6072 16.2951 11.7407 15.5815 12.9333 14.9679C15.8221 13.4756 19.0513 12.5582 22.4763 12.3645C22.933 12.338 23.3937 12.3237 23.8585 12.3237C24.4457 12.3237 25.0267 12.3441 25.6036 12.3869H25.6016Z" fill="black"/>
<path d="M25.6016 12.3869C23.8381 25.8666 13.4511 36.6348 0.161056 38.9732C0.0550457 38.0578 0 37.1262 0 36.1822C0 28.3762 3.74911 21.4468 9.543 17.0942C10.6072 16.2951 11.7407 15.5815 12.9333 14.9679C15.8221 13.4756 19.0513 12.5582 22.4763 12.3645C22.933 12.338 23.3937 12.3237 23.8585 12.3237C24.4457 12.3237 25.0267 12.3441 25.6036 12.3869H25.6016Z" fill="#248E44"/>
</svg>
