<svg width="207" height="60" viewBox="0 0 207 60" fill="none" xmlns="http://www.w3.org/2000/svg">
<path d="M56.5199 37.8333V17.4696H64.554C66.0985 17.4696 67.4143 17.7646 68.5014 18.3546C69.5885 18.9379 70.4171 19.7499 70.9872 20.7906C71.5639 21.8247 71.8523 23.0179 71.8523 24.3702C71.8523 25.7225 71.5606 26.9156 70.9773 27.9497C70.3939 28.9838 69.5488 29.7892 68.4418 30.3659C67.3414 30.9426 66.009 31.231 64.4446 31.231H59.3239V27.7807H63.7486C64.5772 27.7807 65.2599 27.6382 65.7969 27.3531C66.3404 27.0615 66.7448 26.6604 67.0099 26.15C67.2817 25.633 67.4176 25.0397 67.4176 24.3702C67.4176 23.694 67.2817 23.1041 67.0099 22.6003C66.7448 22.0899 66.3404 21.6955 65.7969 21.4171C65.2533 21.132 64.5639 20.9895 63.7287 20.9895H60.8253V37.8333H56.5199ZM74.6488 37.8333V17.4696H88.3704V21.0193H78.9542V25.8716H87.6644V29.4213H78.9542V34.2835H88.4102V37.8333H74.6488ZM91.7933 37.8333V17.4696H99.8274C101.365 17.4696 102.678 17.7447 103.765 18.2949C104.859 18.8385 105.691 19.6107 106.261 20.6117C106.837 21.606 107.126 22.776 107.126 24.1216C107.126 25.4739 106.834 26.6372 106.251 27.6117C105.667 28.5795 104.822 29.3219 103.715 29.8389C102.615 30.356 101.282 30.6145 99.718 30.6145H94.3388V27.1543H99.022C99.844 27.1543 100.527 27.0416 101.07 26.8162C101.614 26.5908 102.018 26.2528 102.283 25.802C102.555 25.3512 102.691 24.7911 102.691 24.1216C102.691 23.4455 102.555 22.8754 102.283 22.4114C102.018 21.9474 101.611 21.596 101.06 21.3574C100.517 21.1121 99.8307 20.9895 99.0021 20.9895H96.0987V37.8333H91.7933ZM102.79 28.5662L107.852 37.8333H103.099L98.147 28.5662H102.79ZM121.215 23.3261C121.136 22.5241 120.794 21.901 120.191 21.4568C119.588 21.0127 118.769 20.7906 117.735 20.7906C117.032 20.7906 116.439 20.8901 115.955 21.0889C115.471 21.2812 115.1 21.5496 114.842 21.8943C114.59 22.239 114.464 22.6301 114.464 23.0676C114.451 23.4322 114.527 23.7504 114.692 24.0222C114.865 24.294 115.1 24.5293 115.398 24.7281C115.697 24.9204 116.041 25.0894 116.433 25.2352C116.824 25.3744 117.241 25.4938 117.685 25.5932L119.515 26.0307C120.403 26.2296 121.219 26.4947 121.961 26.8261C122.703 27.1576 123.346 27.5653 123.89 28.0492C124.433 28.5331 124.854 29.1031 125.153 29.7594C125.458 30.4156 125.613 31.168 125.62 32.0165C125.613 33.2627 125.295 34.3432 124.665 35.258C124.042 36.1661 123.141 36.8721 121.961 37.3759C120.788 37.873 119.372 38.1216 117.715 38.1216C116.071 38.1216 114.639 37.8697 113.42 37.3659C112.207 36.8621 111.259 36.1164 110.576 35.1287C109.9 34.1344 109.545 32.9047 109.512 31.4398H113.678C113.725 32.1226 113.92 32.6926 114.265 33.15C114.616 33.6008 115.084 33.9422 115.667 34.1742C116.257 34.3995 116.923 34.5122 117.665 34.5122C118.395 34.5122 119.028 34.4062 119.565 34.194C120.108 33.9819 120.529 33.6869 120.827 33.3091C121.126 32.9313 121.275 32.4971 121.275 32.0065C121.275 31.5492 121.139 31.1647 120.867 30.8531C120.602 30.5416 120.211 30.2764 119.694 30.0577C119.183 29.8389 118.557 29.6401 117.815 29.4611L115.597 28.9043C113.88 28.4867 112.525 27.8337 111.531 26.9455C110.536 26.0572 110.042 24.8607 110.049 23.356C110.042 22.123 110.371 21.0458 111.033 20.1244C111.703 19.203 112.621 18.4838 113.788 17.9668C114.954 17.4497 116.28 17.1912 117.765 17.1912C119.276 17.1912 120.595 17.4497 121.722 17.9668C122.856 18.4838 123.737 19.203 124.367 20.1244C124.997 21.0458 125.322 22.1131 125.342 23.3261H121.215ZM147.229 27.6514C147.229 29.8721 146.808 31.7613 145.966 33.319C145.131 34.8768 143.991 36.0667 142.546 36.8886C141.107 37.704 139.49 38.1117 137.694 38.1117C135.884 38.1117 134.26 37.7007 132.821 36.8787C131.383 36.0567 130.246 34.8669 129.411 33.3091C128.576 31.7513 128.158 29.8654 128.158 27.6514C128.158 25.4308 128.576 23.5416 129.411 21.9838C130.246 20.4261 131.383 19.2395 132.821 18.4242C134.26 17.6022 135.884 17.1912 137.694 17.1912C139.49 17.1912 141.107 17.6022 142.546 18.4242C143.991 19.2395 145.131 20.4261 145.966 21.9838C146.808 23.5416 147.229 25.4308 147.229 27.6514ZM142.864 27.6514C142.864 26.213 142.649 24.9999 142.218 24.0122C141.793 23.0245 141.194 22.2755 140.418 21.7651C139.642 21.2547 138.734 20.9994 137.694 20.9994C136.653 20.9994 135.745 21.2547 134.969 21.7651C134.194 22.2755 133.59 23.0245 133.159 24.0122C132.735 24.9999 132.523 26.213 132.523 27.6514C132.523 29.0899 132.735 30.3029 133.159 31.2906C133.59 32.2783 134.194 33.0274 134.969 33.5378C135.745 34.0482 136.653 34.3034 137.694 34.3034C138.734 34.3034 139.642 34.0482 140.418 33.5378C141.194 33.0274 141.793 32.2783 142.218 31.2906C142.649 30.3029 142.864 29.0899 142.864 27.6514ZM167.451 17.4696V37.8333H163.732L154.873 25.0165H154.724V37.8333H150.418V17.4696H154.197L162.987 30.2764H163.165V17.4696H167.451ZM174.518 37.8333H169.904L176.934 17.4696H182.483L189.502 37.8333H184.889L179.788 22.123H179.629L174.518 37.8333ZM174.23 29.829H185.127V33.1898H174.23V29.829ZM191.953 37.8333V17.4696H196.259V34.2835H204.989V37.8333H191.953Z" fill="#031837"/>
<path d="M55.7088 56.5V47.7727H61.1207V48.9062H57.0256V51.5653H60.733V52.6946H57.0256V56.5H55.7088ZM66.4568 47.7727V56.5H65.1401V47.7727H66.4568ZM77.8185 47.7727V56.5H76.6082L72.1722 50.0994H72.0912V56.5H70.7744V47.7727H71.9932L76.4335 54.1818H76.5145V47.7727H77.8185ZM82.8765 56.5H81.4788L84.6194 47.7727H86.1407L89.2813 56.5H87.8836L85.4163 49.358H85.3481L82.8765 56.5ZM83.1109 53.0824H87.645V54.1903H83.1109V53.0824ZM99.9857 47.7727V56.5H98.7754L94.3393 50.0994H94.2584V56.5H92.9416V47.7727H94.1604L98.6007 54.1818H98.6817V47.7727H99.9857ZM111.555 50.6108H110.225C110.174 50.3267 110.079 50.0767 109.94 49.8608C109.801 49.6449 109.63 49.4616 109.429 49.3111C109.227 49.1605 109.001 49.0469 108.751 48.9702C108.504 48.8935 108.241 48.8551 107.963 48.8551C107.46 48.8551 107.01 48.9815 106.612 49.2344C106.217 49.4872 105.904 49.858 105.674 50.3466C105.447 50.8352 105.333 51.4318 105.333 52.1364C105.333 52.8466 105.447 53.446 105.674 53.9347C105.904 54.4233 106.218 54.7926 106.616 55.0426C107.014 55.2926 107.461 55.4176 107.958 55.4176C108.234 55.4176 108.495 55.3807 108.743 55.3068C108.993 55.2301 109.218 55.1179 109.42 54.9702C109.622 54.8224 109.792 54.642 109.931 54.429C110.074 54.2131 110.172 53.9659 110.225 53.6875L111.555 53.6918C111.484 54.1207 111.346 54.5156 111.142 54.8764C110.94 55.2344 110.68 55.544 110.362 55.8054C110.047 56.0639 109.686 56.2642 109.279 56.4062C108.873 56.5483 108.43 56.6193 107.95 56.6193C107.194 56.6193 106.521 56.4403 105.93 56.0824C105.339 55.7216 104.873 55.206 104.532 54.5355C104.194 53.8651 104.025 53.0653 104.025 52.1364C104.025 51.2045 104.196 50.4048 104.537 49.7372C104.877 49.0668 105.343 48.5526 105.934 48.1946C106.525 47.8338 107.197 47.6534 107.95 47.6534C108.413 47.6534 108.845 47.7202 109.245 47.8537C109.649 47.9844 110.011 48.1776 110.332 48.4332C110.653 48.6861 110.919 48.9957 111.129 49.3622C111.339 49.7259 111.481 50.142 111.555 50.6108ZM115.531 56.5V47.7727H121.002V48.9062H116.847V51.5653H120.717V52.6946H116.847V55.3665H121.053V56.5H115.531ZM130.307 48.9062V47.7727H137.061V48.9062H134.338V56.5H133.025V48.9062H130.307ZM140.953 56.5V47.7727H144.064C144.74 47.7727 145.301 47.8892 145.747 48.1222C146.196 48.3551 146.531 48.6776 146.753 49.0895C146.975 49.4986 147.085 49.9716 147.085 50.5085C147.085 51.0426 146.973 51.5128 146.749 51.919C146.527 52.3224 146.192 52.6364 145.743 52.8608C145.297 53.0852 144.736 53.1974 144.06 53.1974H141.703V52.0639H143.941C144.367 52.0639 144.713 52.0028 144.98 51.8807C145.25 51.7585 145.448 51.581 145.573 51.348C145.698 51.1151 145.76 50.8352 145.76 50.5085C145.76 50.179 145.696 49.8935 145.568 49.652C145.443 49.4105 145.246 49.2259 144.976 49.098C144.709 48.9673 144.358 48.902 143.924 48.902H142.27V56.5H140.953ZM145.262 52.5625L147.418 56.5H145.918L143.804 52.5625H145.262ZM151.825 56.5H150.427L153.568 47.7727H155.089L158.23 56.5H156.832L154.365 49.358H154.297L151.825 56.5ZM152.059 53.0824H156.593V54.1903H152.059V53.0824ZM168.728 50.6108H167.399C167.348 50.3267 167.253 50.0767 167.113 49.8608C166.974 49.6449 166.804 49.4616 166.602 49.3111C166.4 49.1605 166.175 49.0469 165.925 48.9702C165.677 48.8935 165.415 48.8551 165.136 48.8551C164.633 48.8551 164.183 48.9815 163.785 49.2344C163.39 49.4872 163.078 49.858 162.848 50.3466C162.621 50.8352 162.507 51.4318 162.507 52.1364C162.507 52.8466 162.621 53.446 162.848 53.9347C163.078 54.4233 163.392 54.7926 163.79 55.0426C164.187 55.2926 164.635 55.4176 165.132 55.4176C165.407 55.4176 165.669 55.3807 165.916 55.3068C166.166 55.2301 166.392 55.1179 166.594 54.9702C166.795 54.8224 166.966 54.642 167.105 54.429C167.247 54.2131 167.345 53.9659 167.399 53.6875L168.728 53.6918C168.657 54.1207 168.52 54.5156 168.315 54.8764C168.113 55.2344 167.853 55.544 167.535 55.8054C167.22 56.0639 166.859 56.2642 166.453 56.4062C166.047 56.5483 165.603 56.6193 165.123 56.6193C164.368 56.6193 163.694 56.4403 163.103 56.0824C162.513 55.7216 162.047 55.206 161.706 54.5355C161.368 53.8651 161.199 53.0653 161.199 52.1364C161.199 51.2045 161.369 50.4048 161.71 49.7372C162.051 49.0668 162.517 48.5526 163.108 48.1946C163.699 47.8338 164.371 47.6534 165.123 47.6534C165.586 47.6534 166.018 47.7202 166.419 47.8537C166.822 47.9844 167.184 48.1776 167.505 48.4332C167.826 48.6861 168.092 48.9957 168.302 49.3622C168.513 49.7259 168.655 50.142 168.728 50.6108ZM172.704 56.5V47.7727H174.021V51.9403H174.127L177.788 47.7727H179.446L175.926 51.7017L179.458 56.5H177.873L175.052 52.6009L174.021 53.7855V56.5H172.704ZM183.073 56.5V47.7727H188.544V48.9062H184.39V51.5653H188.259V52.6946H184.39V55.3665H188.596V56.5H183.073ZM192.703 56.5V47.7727H195.814C196.49 47.7727 197.051 47.8892 197.497 48.1222C197.946 48.3551 198.281 48.6776 198.503 49.0895C198.725 49.4986 198.835 49.9716 198.835 50.5085C198.835 51.0426 198.723 51.5128 198.499 51.919C198.277 52.3224 197.942 52.6364 197.493 52.8608C197.047 53.0852 196.486 53.1974 195.81 53.1974H193.453V52.0639H195.691C196.117 52.0639 196.463 52.0028 196.73 51.8807C197 51.7585 197.198 51.581 197.323 51.348C197.448 51.1151 197.51 50.8352 197.51 50.5085C197.51 50.179 197.446 49.8935 197.318 49.652C197.193 49.4105 196.996 49.2259 196.726 49.098C196.459 48.9673 196.108 48.902 195.674 48.902H194.02V56.5H192.703ZM197.012 52.5625L199.168 56.5H197.668L195.554 52.5625H197.012Z" fill="#031837"/>
<path d="M9.54259 42.4553V55.2704C5.01878 51.8719 1.74265 46.9037 0.521484 41.175C3.40008 41.9559 6.42139 42.4003 9.54259 42.4553Z" fill="#2560B6"/>
<path d="M22.4756 40.386V60C19.0507 59.8063 15.8214 58.8869 12.9326 57.3966V42.3615C16.2597 42.1229 19.4604 41.4441 22.4756 40.386Z" fill="#2560B6"/>
<path d="M35.4092 32.5005V57.0623C32.5388 58.6545 29.3075 59.6718 25.8662 59.9593V39.0038C29.4053 37.3444 32.6264 35.1406 35.4092 32.5025V32.5005Z" fill="#2560B6"/>
<path d="M47.7149 36.1822C47.7149 43.7008 44.2349 50.4101 38.7998 54.781V28.8002C40.4634 26.7065 41.8904 24.4252 43.0382 21.9951C45.9759 25.9603 47.7149 30.8694 47.7149 36.1822Z" fill="#2560B6"/>
<path d="M0.289062 39.9089C3.20028 39.5216 8.69653 38.3799 14.1887 34.4229C15.4506 33.5136 19.2915 30.5983 22.4759 25.3896C26.0028 19.6222 26.8774 14.0688 27.122 10.9415L22.4759 9.80803L38.7995 0L47.2131 16.342L43.8228 15.4633C43.3009 17.3939 42.4038 20.0136 40.8096 22.8718C40.2429 23.885 37.7108 28.2987 32.6712 32.4984C30.1759 34.5799 25.9967 37.5013 20.215 39.3198C11.4324 42.0862 3.84042 40.7713 0.289062 39.9089Z" fill="#EC7A23"/>
<path opacity="0.18" d="M25.6016 12.3869C23.8381 25.8666 13.4511 36.6348 0.161056 38.9732C0.0550457 38.0578 0 37.1262 0 36.1822C0 28.3762 3.74911 21.4468 9.543 17.0942C10.6072 16.2951 11.7407 15.5815 12.9333 14.9679C15.8221 13.4756 19.0513 12.5582 22.4763 12.3645C22.933 12.338 23.3937 12.3237 23.8585 12.3237C24.4457 12.3237 25.0267 12.3441 25.6036 12.3869H25.6016Z" fill="black"/>
<path d="M25.6016 12.3869C23.8381 25.8666 13.4511 36.6348 0.161056 38.9732C0.0550457 38.0578 0 37.1262 0 36.1822C0 28.3762 3.74911 21.4468 9.543 17.0942C10.6072 16.2951 11.7407 15.5815 12.9333 14.9679C15.8221 13.4756 19.0513 12.5582 22.4763 12.3645C22.933 12.338 23.3937 12.3237 23.8585 12.3237C24.4457 12.3237 25.0267 12.3441 25.6036 12.3869H25.6016Z" fill="#248E44"/>
</svg>
