<svg width="120" height="120" viewBox="0 0 120 120" fill="none" xmlns="http://www.w3.org/2000/svg">
<circle cx="60" cy="60" r="60" fill="#FFE6E6"/>
<path d="M69.8102 80.0002H50.0293C47.4844 80.0002 45.4141 77.9298 45.4141 75.3849V47.4961C45.4141 46.6465 46.1035 45.957 46.9531 45.957H72.8865C73.7361 45.957 74.4256 46.6465 74.4256 47.4961V75.3829C74.4256 77.9298 72.3552 80.0002 69.8102 80.0002ZM48.4918 49.0349V75.3846C48.4918 76.2323 49.1813 76.9237 50.0309 76.9237H69.8118C70.6595 76.9237 71.3508 76.2342 71.3508 75.3846L71.3489 49.0349H48.4918Z" fill="#DA5F5F"/>
<path d="M77.1209 49.0352H42.7305C41.8809 49.0352 41.1914 48.3457 41.1914 47.4961C41.1914 46.6465 41.8809 45.957 42.7305 45.957L77.1209 45.959C77.9705 45.959 78.6599 46.6484 78.6599 47.4981C78.6599 48.3477 77.9705 49.0352 77.1209 49.0352Z" fill="#DA5F5F"/>
<path d="M66.082 49.0352H53.7695C52.9199 49.0352 52.2305 48.3457 52.2305 47.4961L52.2324 41.5391C52.2324 40.6895 52.9219 40 53.7715 40H66.0819C66.9315 40 67.621 40.6895 67.621 41.5391V47.4981C67.619 48.3477 66.9316 49.0352 66.082 49.0352ZM55.3085 45.959H64.543V43.0781L55.3085 43.0762V45.959Z" fill="#DA5F5F"/>
<path d="M55.4238 71.365C54.5742 71.365 53.8848 70.6756 53.8848 69.826V56.1323C53.8848 55.2827 54.5742 54.5933 55.4238 54.5933C56.2734 54.5933 56.9629 55.2827 56.9629 56.1323V69.826C56.9629 70.6756 56.2734 71.365 55.4238 71.365Z" fill="#DA5F5F"/>
<path d="M64.4316 71.365C63.582 71.365 62.8926 70.6756 62.8926 69.826L62.8945 56.1323C62.8945 55.2827 63.584 54.5933 64.4336 54.5933C65.2832 54.5933 65.9726 55.2827 65.9726 56.1323V69.826C65.9707 70.6756 65.2812 71.365 64.4316 71.365Z" fill="#DA5F5F"/>
</svg>
