<svg width="120" height="120" viewBox="0 0 120 120" fill="none" xmlns="http://www.w3.org/2000/svg">
<circle cx="60" cy="60" r="60" fill="#248E44" fill-opacity="0.1"/>
<path d="M51.6531 53.9571C51.1036 54.0257 50.623 54.2318 50.2797 54.6438L45.1295 60.7554L42.7946 58.0086C42.1079 57.1847 40.8032 57.0472 39.9106 57.7339C39.0865 58.558 39.0178 59.8628 39.7045 60.6868L43.55 65.2875C43.9619 65.7681 44.5114 66.0428 45.1295 66.0428C45.7476 66.0428 46.2968 65.7681 46.709 65.2875L53.4386 57.3219C53.782 56.9099 53.9881 56.3604 53.9192 55.8112C53.8506 55.2618 53.6445 54.7812 53.2325 54.4379C52.7517 54.0945 52.2022 53.957 51.653 53.957L51.6531 53.9571Z" fill="#248E44"/>
<path d="M76.2361 44H43C34.2103 44 27 51.1416 27 60C27 68.8584 34.2103 76 43 76H76.2361C85.0258 76 92.2361 68.8584 92.2361 60C92.2361 51.1416 85.0258 44 76.2361 44ZM43 71.7425C36.5451 71.7425 31.2575 66.4551 31.2575 60C31.2575 53.545 36.545 48.2575 43 48.2575H65.3176C62.1589 51.2104 60.1674 55.3305 60.1674 60C60.1674 64.6007 62.1589 68.7897 65.3176 71.7425H43ZM76.2361 71.7425C69.7811 71.7425 64.4936 66.4551 64.4936 60C64.4936 53.545 69.781 48.2575 76.2361 48.2575C82.691 48.2575 87.9099 53.545 87.9099 60C87.9099 66.4551 82.691 71.7425 76.2361 71.7425Z" fill="#248E44"/>
</svg>
