<svg width="120" height="120" viewBox="0 0 120 120" fill="none" xmlns="http://www.w3.org/2000/svg">
<circle cx="60" cy="60" r="60" fill="#FFE6E6"/>
<path d="M43.0003 44H76.2363C85.026 44 92.2363 51.1416 92.2363 60C92.2363 68.8584 85.026 76 76.2363 76H43.0003C34.2106 76 27.0003 68.8584 27.0003 60C27.0003 51.1416 34.2106 44 43.0003 44ZM76.2363 71.7425C82.6913 71.7425 87.9788 66.4551 87.9788 60C87.9788 53.545 82.6914 48.2575 76.2363 48.2575H53.9187C57.0775 51.2104 59.0689 55.3305 59.0689 60C59.0689 64.6007 57.0775 68.7897 53.9187 71.7425H76.2363ZM43.0003 71.7425C49.4552 71.7425 54.7428 66.4551 54.7428 60C54.7428 53.545 49.4553 48.2575 43.0003 48.2575C36.5453 48.2575 31.3265 53.545 31.3265 60C31.3265 66.4551 36.5453 71.7425 43.0003 71.7425Z" fill="#DA5F5F"/>
<path d="M76.5127 54.469C75.8874 53.8437 74.8643 53.8437 74.239 54.469L70.9827 57.7253L67.7427 54.469C67.1174 53.8437 66.0943 53.8437 65.469 54.469C64.8437 55.0943 64.8437 56.1174 65.469 56.7427L68.7253 59.999L65.469 63.2553C64.8437 63.8806 64.8437 64.9037 65.469 65.529C65.7694 65.8295 66.1836 66 66.5977 66C67.0118 66 67.4341 65.8295 67.7264 65.529L70.9827 62.2727L74.239 65.529C74.5395 65.8295 74.9536 66 75.3677 66C75.7819 66 76.2041 65.8295 76.4964 65.529C77.1217 64.9037 77.1217 63.8806 76.4964 63.2553L73.2401 59.999L76.4964 56.7427C77.1217 56.1174 77.1217 55.0943 76.4964 54.469H76.5127Z" fill="#DA5F5F"/>
</svg>
