<svg width="182" height="182" viewBox="0 0 182 182" fill="none" xmlns="http://www.w3.org/2000/svg">
<path d="M91 1C41.3645 1 1 41.3645 1 91C1 140.636 41.3645 181 91 181C140.636 181 181 140.636 181 91C181 41.3645 140.636 1 91 1ZM91 12.7394C134.29 12.7394 169.262 47.7085 169.262 91.001C169.262 134.294 134.293 169.263 91 169.263C47.7074 169.263 12.7383 134.294 12.7383 91.001C12.7383 47.7085 47.7074 12.7394 91 12.7394ZM57.7396 53.8262C50.176 53.8262 44.0446 59.9579 44.0446 67.5212C44.0446 75.0846 50.1763 81.2163 57.7396 81.2163C65.303 81.2163 71.4347 75.0846 71.4347 67.5212C71.4347 59.9579 65.303 53.8262 57.7396 53.8262ZM124.26 53.8262C116.697 53.8262 110.565 59.9579 110.565 67.5212C110.565 75.0846 116.697 81.2163 124.26 81.2163C131.824 81.2163 137.955 75.0846 137.955 67.5212C137.955 59.9579 131.824 53.8262 124.26 53.8262ZM91 100.782C71.1349 100.782 53.5585 111.134 43.0654 126.83L43.0664 126.829C42.1937 128.126 41.8721 129.718 42.1745 131.252C42.4768 132.786 43.3769 134.138 44.6764 135.006C45.977 135.876 47.5688 136.191 49.102 135.885C50.6362 135.579 51.9843 134.673 52.849 133.371C61.3227 120.695 75.2153 112.522 90.9999 112.522C106.785 112.522 120.677 120.695 129.151 133.371H129.152C130.017 134.673 131.365 135.579 132.899 135.885C134.432 136.191 136.024 135.876 137.323 135.006C138.624 134.137 139.524 132.786 139.826 131.252C140.129 129.718 139.807 128.126 138.934 126.829C128.442 111.134 110.865 100.781 90.9998 100.781L91 100.782Z" fill="#EC7A23" stroke="#F3F4F8" stroke-width="2"/>
</svg>
