<svg width="120" height="120" viewBox="0 0 120 120" fill="none" xmlns="http://www.w3.org/2000/svg">
<circle cx="60" cy="60" r="60" fill="#FFE6E6"/>
<path fill-rule="evenodd" clip-rule="evenodd" d="M60 39C71.5974 39 81 48.4026 81 60C81 71.5974 71.5978 81 60 81C48.4022 81 39 71.5978 39 60C39 48.4022 48.4026 39 60 39ZM58.3849 67.7657C58.3849 70.4234 61.6156 70.0295 61.6156 68.0308C61.6151 65.3731 58.3849 65.7675 58.3849 67.7657ZM58.3849 51.9691V62.2587C58.3849 64.3853 61.6156 64.3853 61.6156 62.2587V51.9691C61.6151 49.842 58.3849 49.842 58.3849 51.9691ZM72.5646 47.4354C65.6252 40.4961 54.3739 40.4961 47.435 47.4354C40.4956 54.3747 40.4956 65.6261 47.435 72.565C54.3743 79.5043 65.6256 79.5043 72.5646 72.565C79.5039 65.6257 79.5043 54.3743 72.5646 47.4354Z" fill="#DA5F5F"/>
</svg>
