<svg width="375" height="90" viewBox="0 0 375 90" fill="none" xmlns="http://www.w3.org/2000/svg">
<path d="M84.4006 56.25V30.0682H94.7301C96.7159 30.0682 98.4077 30.4474 99.8054 31.206C101.203 31.956 102.268 33 103.001 34.3381C103.743 35.6676 104.114 37.2017 104.114 38.9403C104.114 40.679 103.739 42.2131 102.989 43.5426C102.239 44.8722 101.152 45.9077 99.7287 46.6491C98.3139 47.3906 96.6009 47.7614 94.5895 47.7614H88.0057V43.3253H93.6946C94.7599 43.3253 95.6378 43.142 96.3281 42.7756C97.027 42.4006 97.5469 41.8849 97.8878 41.2287C98.2372 40.5639 98.4119 39.8011 98.4119 38.9403C98.4119 38.071 98.2372 37.3125 97.8878 36.6648C97.5469 36.0085 97.027 35.5014 96.3281 35.1435C95.6293 34.777 94.7429 34.5938 93.669 34.5938H89.9361V56.25H84.4006ZM107.709 56.25V30.0682H125.351V34.6321H113.245V40.8707H124.444V45.4347H113.245V51.6861H125.402V56.25H107.709ZM129.752 56.25V30.0682H140.082C142.059 30.0682 143.746 30.4219 145.144 31.1293C146.55 31.8281 147.62 32.821 148.353 34.108C149.094 35.3864 149.465 36.8906 149.465 38.6207C149.465 40.3594 149.09 41.8551 148.34 43.108C147.59 44.3523 146.504 45.3068 145.08 45.9716C143.665 46.6364 141.952 46.9688 139.941 46.9688H133.025V42.5199H139.046C140.103 42.5199 140.981 42.375 141.68 42.0852C142.379 41.7955 142.898 41.3608 143.239 40.7812C143.589 40.2017 143.763 39.4815 143.763 38.6207C143.763 37.7514 143.589 37.0185 143.239 36.4219C142.898 35.8253 142.374 35.3736 141.667 35.0668C140.968 34.7514 140.086 34.5938 139.021 34.5938H135.288V56.25H129.752ZM143.891 44.3352L150.398 56.25H144.288L137.921 44.3352H143.891ZM167.58 37.598C167.478 36.5668 167.039 35.7656 166.263 35.1946C165.488 34.6236 164.435 34.3381 163.106 34.3381C162.202 34.3381 161.44 34.4659 160.817 34.7216C160.195 34.9688 159.718 35.3139 159.386 35.7571C159.062 36.2003 158.9 36.7031 158.9 37.2656C158.883 37.7344 158.981 38.1435 159.194 38.4929C159.415 38.8423 159.718 39.1449 160.102 39.4006C160.485 39.6477 160.928 39.8651 161.431 40.0526C161.934 40.2315 162.471 40.3849 163.042 40.5128L165.394 41.0753C166.536 41.331 167.585 41.6719 168.539 42.098C169.494 42.5241 170.32 43.0483 171.019 43.6705C171.718 44.2926 172.259 45.0256 172.643 45.8693C173.035 46.7131 173.235 47.6804 173.244 48.7713C173.235 50.3736 172.826 51.7628 172.016 52.9389C171.215 54.1065 170.056 55.0142 168.539 55.6619C167.031 56.3011 165.211 56.6207 163.08 56.6207C160.967 56.6207 159.126 56.2969 157.558 55.6491C155.998 55.0014 154.779 54.0426 153.901 52.7727C153.032 51.4943 152.576 49.9134 152.533 48.0298H157.89C157.95 48.9077 158.201 49.6406 158.644 50.2287C159.096 50.8082 159.697 51.2472 160.447 51.5455C161.205 51.8352 162.062 51.9801 163.016 51.9801C163.954 51.9801 164.768 51.8437 165.458 51.571C166.157 51.2983 166.698 50.919 167.082 50.4332C167.465 49.9474 167.657 49.3892 167.657 48.7585C167.657 48.1705 167.482 47.6761 167.133 47.2756C166.792 46.875 166.289 46.5341 165.624 46.2528C164.968 45.9716 164.163 45.7159 163.208 45.4858L160.357 44.7699C158.15 44.233 156.407 43.3935 155.129 42.2514C153.85 41.1094 153.215 39.571 153.224 37.6364C153.215 36.0511 153.637 34.6662 154.489 33.4815C155.35 32.2969 156.531 31.3722 158.031 30.7074C159.531 30.0426 161.235 29.7102 163.144 29.7102C165.087 29.7102 166.783 30.0426 168.232 30.7074C169.69 31.3722 170.823 32.2969 171.633 33.4815C172.442 34.6662 172.86 36.0384 172.886 37.598H167.58ZM201.027 43.1591C201.027 46.0142 200.485 48.4432 199.403 50.446C198.329 52.4489 196.863 53.9787 195.005 55.0355C193.156 56.0838 191.076 56.608 188.767 56.608C186.44 56.608 184.352 56.0795 182.502 55.0227C180.653 53.9659 179.191 52.4361 178.118 50.4332C177.044 48.4304 176.507 46.0057 176.507 43.1591C176.507 40.304 177.044 37.875 178.118 35.8722C179.191 33.8693 180.653 32.3437 182.502 31.2955C184.352 30.2386 186.44 29.7102 188.767 29.7102C191.076 29.7102 193.156 30.2386 195.005 31.2955C196.863 32.3437 198.329 33.8693 199.403 35.8722C200.485 37.875 201.027 40.304 201.027 43.1591ZM195.414 43.1591C195.414 41.3097 195.137 39.75 194.583 38.4801C194.038 37.2102 193.267 36.2472 192.27 35.5909C191.272 34.9347 190.105 34.6065 188.767 34.6065C187.429 34.6065 186.261 34.9347 185.264 35.5909C184.267 36.2472 183.491 37.2102 182.937 38.4801C182.392 39.75 182.119 41.3097 182.119 43.1591C182.119 45.0085 182.392 46.5682 182.937 47.8381C183.491 49.108 184.267 50.071 185.264 50.7273C186.261 51.3835 187.429 51.7116 188.767 51.7116C190.105 51.7116 191.272 51.3835 192.27 50.7273C193.267 50.071 194.038 49.108 194.583 47.8381C195.137 46.5682 195.414 45.0085 195.414 43.1591ZM227.026 30.0682V56.25H222.245L210.854 39.7713H210.663V56.25H205.127V30.0682H209.985L221.286 46.5341H221.516V30.0682H227.026ZM236.113 56.25H230.181L239.219 30.0682H246.353L255.378 56.25H249.446L242.888 36.0511H242.684L236.113 56.25ZM235.742 45.9588H249.753V50.2798H235.742V45.9588ZM258.529 56.25V30.0682H264.065V51.6861H275.289V56.25H258.529Z" fill="white"/>
<path d="M83.4034 84.75V73.1136H90.6193V74.625H85.1591V78.1705H90.1023V79.6761H85.1591V84.75H83.4034ZM97.7341 73.1136V84.75H95.9784V73.1136H97.7341ZM112.883 73.1136V84.75H111.269L105.355 76.2159H105.247V84.75H103.491V73.1136H105.116L111.036 81.6591H111.144V73.1136H112.883ZM119.627 84.75H117.763L121.951 73.1136H123.979L128.167 84.75H126.303L123.013 75.2273H122.922L119.627 84.75ZM119.939 80.1932H125.985V81.6705H119.939V80.1932ZM142.439 73.1136V84.75H140.826L134.911 76.2159H134.803V84.75H133.047V73.1136H134.672L140.593 81.6591H140.701V73.1136H142.439ZM157.865 76.8977H156.092C156.024 76.5189 155.897 76.1856 155.712 75.8977C155.526 75.6098 155.299 75.3655 155.03 75.1648C154.761 74.964 154.46 74.8125 154.126 74.7102C153.797 74.608 153.446 74.5568 153.075 74.5568C152.405 74.5568 151.804 74.7254 151.274 75.0625C150.748 75.3996 150.331 75.8939 150.024 76.5455C149.721 77.197 149.57 77.9924 149.57 78.9318C149.57 79.8788 149.721 80.678 150.024 81.3295C150.331 81.9811 150.75 82.4735 151.28 82.8068C151.81 83.1402 152.407 83.3068 153.07 83.3068C153.437 83.3068 153.786 83.2576 154.115 83.1591C154.448 83.0568 154.75 82.9072 155.018 82.7102C155.287 82.5133 155.515 82.2727 155.7 81.9886C155.89 81.7008 156.02 81.3712 156.092 81L157.865 81.0057C157.77 81.5777 157.587 82.1042 157.314 82.5852C157.045 83.0625 156.698 83.4754 156.274 83.8239C155.854 84.1686 155.373 84.4356 154.831 84.625C154.289 84.8144 153.698 84.9091 153.058 84.9091C152.051 84.9091 151.153 84.6705 150.365 84.1932C149.577 83.7121 148.956 83.0246 148.501 82.1307C148.051 81.2367 147.825 80.1705 147.825 78.9318C147.825 77.6894 148.053 76.6231 148.507 75.733C148.962 74.839 149.583 74.1534 150.371 73.6761C151.159 73.1951 152.054 72.9545 153.058 72.9545C153.676 72.9545 154.251 73.0436 154.786 73.2216C155.323 73.3958 155.806 73.6534 156.234 73.9943C156.662 74.3314 157.017 74.7443 157.297 75.233C157.577 75.7178 157.767 76.2727 157.865 76.8977ZM163.166 84.75V73.1136H170.461V74.625H164.922V78.1705H170.081V79.6761H164.922V83.2386H170.53V84.75H163.166ZM182.867 74.625V73.1136H191.873V74.625H188.242V84.75H186.492V74.625H182.867ZM197.063 84.75V73.1136H201.211C202.112 73.1136 202.86 73.2689 203.455 73.5795C204.053 73.8902 204.5 74.3201 204.796 74.8693C205.091 75.4148 205.239 76.0455 205.239 76.7614C205.239 77.4735 205.089 78.1004 204.79 78.642C204.495 79.1799 204.048 79.5985 203.449 79.8977C202.854 80.197 202.106 80.3466 201.205 80.3466H198.063V78.8352H201.046C201.614 78.8352 202.076 78.7538 202.432 78.5909C202.792 78.428 203.055 78.1913 203.222 77.8807C203.389 77.5701 203.472 77.197 203.472 76.7614C203.472 76.322 203.387 75.9413 203.216 75.6193C203.05 75.2973 202.786 75.0511 202.426 74.8807C202.07 74.7064 201.603 74.6193 201.023 74.6193H198.818V84.75H197.063ZM202.807 79.5L205.682 84.75H203.682L200.864 79.5H202.807ZM211.558 84.75H209.695L213.882 73.1136H215.911L220.098 84.75H218.234L214.945 75.2273H214.854L211.558 84.75ZM211.871 80.1932H217.916V81.6705H211.871V80.1932ZM234.096 76.8977H232.324C232.255 76.5189 232.129 76.1856 231.943 75.8977C231.757 75.6098 231.53 75.3655 231.261 75.1648C230.992 74.964 230.691 74.8125 230.358 74.7102C230.028 74.608 229.678 74.5568 229.307 74.5568C228.636 74.5568 228.036 74.7254 227.505 75.0625C226.979 75.3996 226.562 75.8939 226.255 76.5455C225.952 77.197 225.801 77.9924 225.801 78.9318C225.801 79.8788 225.952 80.678 226.255 81.3295C226.562 81.9811 226.981 82.4735 227.511 82.8068C228.041 83.1402 228.638 83.3068 229.301 83.3068C229.668 83.3068 230.017 83.2576 230.346 83.1591C230.68 83.0568 230.981 82.9072 231.25 82.7102C231.519 82.5133 231.746 82.2727 231.932 81.9886C232.121 81.7008 232.252 81.3712 232.324 81L234.096 81.0057C234.002 81.5777 233.818 82.1042 233.545 82.5852C233.276 83.0625 232.93 83.4754 232.505 83.8239C232.085 84.1686 231.604 84.4356 231.062 84.625C230.521 84.8144 229.93 84.9091 229.289 84.9091C228.282 84.9091 227.384 84.6705 226.596 84.1932C225.808 83.7121 225.187 83.0246 224.733 82.1307C224.282 81.2367 224.057 80.1705 224.057 78.9318C224.057 77.6894 224.284 76.6231 224.738 75.733C225.193 74.839 225.814 74.1534 226.602 73.6761C227.39 73.1951 228.286 72.9545 229.289 72.9545C229.907 72.9545 230.483 73.0436 231.017 73.2216C231.555 73.3958 232.038 73.6534 232.466 73.9943C232.894 74.3314 233.248 74.7443 233.528 75.233C233.808 75.7178 233.998 76.2727 234.096 76.8977ZM239.397 84.75V73.1136H241.153V78.6705H241.295L246.176 73.1136H248.386L243.693 78.3523L248.403 84.75H246.289L242.528 79.5511L241.153 81.1307V84.75H239.397ZM253.222 84.75V73.1136H260.518V74.625H254.978V78.1705H260.137V79.6761H254.978V83.2386H260.586V84.75H253.222ZM266.063 84.75V73.1136H270.211C271.112 73.1136 271.86 73.2689 272.455 73.5795C273.053 73.8902 273.5 74.3201 273.796 74.8693C274.091 75.4148 274.239 76.0455 274.239 76.7614C274.239 77.4735 274.089 78.1004 273.79 78.642C273.495 79.1799 273.048 79.5985 272.449 79.8977C271.854 80.197 271.106 80.3466 270.205 80.3466H267.063V78.8352H270.046C270.614 78.8352 271.076 78.7538 271.432 78.5909C271.792 78.428 272.055 78.1913 272.222 77.8807C272.389 77.5701 272.472 77.197 272.472 76.7614C272.472 76.322 272.387 75.9413 272.216 75.6193C272.05 75.2973 271.786 75.0511 271.426 74.8807C271.07 74.7064 270.603 74.6193 270.023 74.6193H267.818V84.75H266.063ZM271.807 79.5L274.682 84.75H272.682L269.864 79.5H271.807Z" fill="white"/>
<path d="M14.3149 63.6828V82.9054C7.52915 77.8077 2.61495 70.3554 0.783203 61.7624C5.1011 62.9336 9.63306 63.6002 14.3149 63.6828Z" fill="#2560B6"/>
<path d="M33.7149 60.579V90C28.5774 89.7095 23.7336 88.3303 19.4004 86.0949V63.5422C24.391 63.1844 29.1921 62.1661 33.7149 60.579Z" fill="#2560B6"/>
<path d="M53.1153 48.7507V85.5935C48.8096 87.9818 43.9627 89.5077 38.8008 89.9389V58.5057C44.1095 56.0165 48.9411 52.7108 53.1153 48.7537V48.7507Z" fill="#2560B6"/>
<path d="M71.5728 54.2733C71.5728 65.5512 66.3528 75.6151 58.2002 82.1714V43.2003C60.6955 40.0597 62.8361 36.6378 64.5578 32.9927C68.9644 38.9405 71.5728 46.3041 71.5728 54.2733Z" fill="#2560B6"/>
<path d="M0.43457 59.8634C4.80139 59.2824 13.0458 57.5699 21.284 51.6343C23.1769 50.2705 28.9382 45.8975 33.7148 38.0843C39.0051 29.4332 40.317 21.1033 40.684 16.4123L33.7148 14.712L58.2002 0L70.8206 24.5129L65.7351 23.1949C64.9523 26.0909 63.6067 30.0204 61.2154 34.3077C60.3653 35.8275 56.5672 42.4481 49.0079 48.7476C45.2649 51.8698 38.996 56.2519 30.3235 58.9796C17.1496 63.1293 5.76161 61.1569 0.43457 59.8634Z" fill="#EC7A23"/>
<path opacity="0.18" d="M38.4024 18.5804C35.7572 38.7999 20.1767 54.9522 0.241585 58.4598C0.0825686 57.0867 0 55.6892 0 54.2734C0 42.5643 5.62366 32.1701 14.3145 25.6413C15.9108 24.4426 17.611 23.3723 19.4 22.4518C23.7331 20.2134 28.577 18.8373 33.7145 18.5468C34.3994 18.507 35.0906 18.4856 35.7878 18.4856C36.6685 18.4856 37.54 18.5162 38.4054 18.5804H38.4024Z" fill="black"/>
<path d="M38.4024 18.5804C35.7572 38.7999 20.1767 54.9522 0.241585 58.4598C0.0825686 57.0867 0 55.6892 0 54.2734C0 42.5643 5.62366 32.1701 14.3145 25.6413C15.9108 24.4426 17.611 23.3723 19.4 22.4518C23.7331 20.2134 28.577 18.8373 33.7145 18.5468C34.3994 18.507 35.0906 18.4856 35.7878 18.4856C36.6685 18.4856 37.54 18.5162 38.4054 18.5804H38.4024Z" fill="#248E44"/>
</svg>
